<mxfile host="app.diagrams.net" modified="2021-01-08T11:04:16.562Z" agent="5.0 (Windows NT 10.0; Win64; x64) AppleWebKit/537.36 (KHTML, like Gecko) Chrome/87.0.4280.141 Safari/537.36" etag="Eu32pH8mANjvCDJ6uGxH" version="14.1.8" type="github">
  <diagram id="prtHgNgQTEPvFCAcTncT" name="Page-1">
    <mxGraphModel dx="1221" dy="706" grid="1" gridSize="10" guides="1" tooltips="1" connect="1" arrows="1" fold="1" page="1" pageScale="1" pageWidth="827" pageHeight="1169" math="0" shadow="0">
      <root>
        <mxCell id="0" />
        <mxCell id="1" parent="0" />
        <mxCell id="dNxyNK7c78bLwvsdeMH5-11" value="PokeBatle (stage1)" style="swimlane;html=1;startSize=20;horizontal=1;containerType=tree;glass=0;" parent="1" vertex="1">
          <mxGeometry x="67" y="20" width="760" height="810" as="geometry" />
        </mxCell>
        <mxCell id="mLjr8I31Hqfwe-pCWp4u-1" value="Battle" style="swimlane;fontStyle=1;align=center;verticalAlign=top;childLayout=stackLayout;horizontal=1;startSize=26;horizontalStack=0;resizeParent=1;resizeParentMax=0;resizeLast=0;collapsible=1;marginBottom=0;" vertex="1" parent="dNxyNK7c78bLwvsdeMH5-11">
          <mxGeometry x="30" y="60" width="200" height="186" as="geometry" />
        </mxCell>
        <mxCell id="mLjr8I31Hqfwe-pCWp4u-6" value="- pvTeam1: Array&lt;Pokemon.pv&gt;" style="text;strokeColor=none;fillColor=none;align=left;verticalAlign=top;spacingLeft=4;spacingRight=4;overflow=hidden;rotatable=0;points=[[0,0.5],[1,0.5]];portConstraint=eastwest;" vertex="1" parent="mLjr8I31Hqfwe-pCWp4u-1">
          <mxGeometry y="26" width="200" height="26" as="geometry" />
        </mxCell>
        <mxCell id="mLjr8I31Hqfwe-pCWp4u-5" value="+ team1: string&lt;Pokemon.name&gt;" style="text;strokeColor=none;fillColor=none;align=left;verticalAlign=top;spacingLeft=4;spacingRight=4;overflow=hidden;rotatable=0;points=[[0,0.5],[1,0.5]];portConstraint=eastwest;" vertex="1" parent="mLjr8I31Hqfwe-pCWp4u-1">
          <mxGeometry y="52" width="200" height="26" as="geometry" />
        </mxCell>
        <mxCell id="mLjr8I31Hqfwe-pCWp4u-8" value="-Â  pvTeam2: number" style="text;strokeColor=none;fillColor=none;align=left;verticalAlign=top;spacingLeft=4;spacingRight=4;overflow=hidden;rotatable=0;points=[[0,0.5],[1,0.5]];portConstraint=eastwest;" vertex="1" parent="mLjr8I31Hqfwe-pCWp4u-1">
          <mxGeometry y="78" width="200" height="26" as="geometry" />
        </mxCell>
        <mxCell id="mLjr8I31Hqfwe-pCWp4u-7" value="- team2: Array&lt;Pokemon&gt;" style="text;strokeColor=none;fillColor=none;align=left;verticalAlign=top;spacingLeft=4;spacingRight=4;overflow=hidden;rotatable=0;points=[[0,0.5],[1,0.5]];portConstraint=eastwest;" vertex="1" parent="mLjr8I31Hqfwe-pCWp4u-1">
          <mxGeometry y="104" width="200" height="22" as="geometry" />
        </mxCell>
        <mxCell id="mLjr8I31Hqfwe-pCWp4u-3" value="" style="line;strokeWidth=1;fillColor=none;align=left;verticalAlign=middle;spacingTop=-1;spacingLeft=3;spacingRight=3;rotatable=0;labelPosition=right;points=[];portConstraint=eastwest;" vertex="1" parent="mLjr8I31Hqfwe-pCWp4u-1">
          <mxGeometry y="126" width="200" height="8" as="geometry" />
        </mxCell>
        <mxCell id="mLjr8I31Hqfwe-pCWp4u-10" value="- result(): boolean" style="text;strokeColor=none;fillColor=none;align=left;verticalAlign=top;spacingLeft=4;spacingRight=4;overflow=hidden;rotatable=0;points=[[0,0.5],[1,0.5]];portConstraint=eastwest;" vertex="1" parent="mLjr8I31Hqfwe-pCWp4u-1">
          <mxGeometry y="134" width="200" height="26" as="geometry" />
        </mxCell>
        <mxCell id="mLjr8I31Hqfwe-pCWp4u-9" value="+ throw(string): number" style="text;strokeColor=none;fillColor=none;align=left;verticalAlign=top;spacingLeft=4;spacingRight=4;overflow=hidden;rotatable=0;points=[[0,0.5],[1,0.5]];portConstraint=eastwest;" vertex="1" parent="mLjr8I31Hqfwe-pCWp4u-1">
          <mxGeometry y="160" width="200" height="26" as="geometry" />
        </mxCell>
        <mxCell id="mLjr8I31Hqfwe-pCWp4u-11" value="Pokemon" style="swimlane;fontStyle=1;align=center;verticalAlign=top;childLayout=stackLayout;horizontal=1;startSize=26;horizontalStack=0;resizeParent=1;resizeParentMax=0;resizeLast=0;collapsible=1;marginBottom=0;" vertex="1" parent="dNxyNK7c78bLwvsdeMH5-11">
          <mxGeometry x="361" y="60" width="180" height="134" as="geometry" />
        </mxCell>
        <mxCell id="mLjr8I31Hqfwe-pCWp4u-12" value="- name: string" style="text;strokeColor=none;fillColor=none;align=left;verticalAlign=top;spacingLeft=4;spacingRight=4;overflow=hidden;rotatable=0;points=[[0,0.5],[1,0.5]];portConstraint=eastwest;" vertex="1" parent="mLjr8I31Hqfwe-pCWp4u-11">
          <mxGeometry y="26" width="180" height="26" as="geometry" />
        </mxCell>
        <mxCell id="mLjr8I31Hqfwe-pCWp4u-13" value="- type: string" style="text;strokeColor=none;fillColor=none;align=left;verticalAlign=top;spacingLeft=4;spacingRight=4;overflow=hidden;rotatable=0;points=[[0,0.5],[1,0.5]];portConstraint=eastwest;" vertex="1" parent="mLjr8I31Hqfwe-pCWp4u-11">
          <mxGeometry y="52" width="180" height="26" as="geometry" />
        </mxCell>
        <mxCell id="mLjr8I31Hqfwe-pCWp4u-39" value="- pv: number" style="text;strokeColor=none;fillColor=none;align=left;verticalAlign=top;spacingLeft=4;spacingRight=4;overflow=hidden;rotatable=0;points=[[0,0.5],[1,0.5]];portConstraint=eastwest;" vertex="1" parent="mLjr8I31Hqfwe-pCWp4u-11">
          <mxGeometry y="78" width="180" height="26" as="geometry" />
        </mxCell>
        <mxCell id="mLjr8I31Hqfwe-pCWp4u-14" value="- pokeMoves: Array&lt;Move&gt;" style="text;strokeColor=none;fillColor=none;align=left;verticalAlign=top;spacingLeft=4;spacingRight=4;overflow=hidden;rotatable=0;points=[[0,0.5],[1,0.5]];portConstraint=eastwest;" vertex="1" parent="mLjr8I31Hqfwe-pCWp4u-11">
          <mxGeometry y="104" width="180" height="22" as="geometry" />
        </mxCell>
        <mxCell id="mLjr8I31Hqfwe-pCWp4u-15" value="" style="line;strokeWidth=1;fillColor=none;align=left;verticalAlign=middle;spacingTop=-1;spacingLeft=3;spacingRight=3;rotatable=0;labelPosition=right;points=[];portConstraint=eastwest;" vertex="1" parent="mLjr8I31Hqfwe-pCWp4u-11">
          <mxGeometry y="126" width="180" height="8" as="geometry" />
        </mxCell>
        <mxCell id="mLjr8I31Hqfwe-pCWp4u-20" value="" style="endArrow=none;html=1;edgeStyle=orthogonalEdgeStyle;dashed=1;" edge="1" parent="dNxyNK7c78bLwvsdeMH5-11">
          <mxGeometry relative="1" as="geometry">
            <mxPoint x="231" y="130" as="sourcePoint" />
            <mxPoint x="361" y="130" as="targetPoint" />
          </mxGeometry>
        </mxCell>
        <mxCell id="mLjr8I31Hqfwe-pCWp4u-21" value="1...4" style="edgeLabel;resizable=0;html=1;align=left;verticalAlign=bottom;" connectable="0" vertex="1" parent="mLjr8I31Hqfwe-pCWp4u-20">
          <mxGeometry x="-1" relative="1" as="geometry" />
        </mxCell>
        <mxCell id="mLjr8I31Hqfwe-pCWp4u-22" value="0...1" style="edgeLabel;resizable=0;html=1;align=right;verticalAlign=bottom;" connectable="0" vertex="1" parent="mLjr8I31Hqfwe-pCWp4u-20">
          <mxGeometry x="1" relative="1" as="geometry" />
        </mxCell>
        <mxCell id="mLjr8I31Hqfwe-pCWp4u-23" value="" style="endArrow=none;html=1;edgeStyle=orthogonalEdgeStyle;exitX=0.5;exitY=1;exitDx=0;exitDy=0;dashed=1;entryX=0.484;entryY=0.004;entryDx=0;entryDy=0;entryPerimeter=0;" edge="1" parent="dNxyNK7c78bLwvsdeMH5-11" source="mLjr8I31Hqfwe-pCWp4u-11" target="mLjr8I31Hqfwe-pCWp4u-27">
          <mxGeometry relative="1" as="geometry">
            <mxPoint x="374" y="220" as="sourcePoint" />
            <mxPoint x="410" y="310" as="targetPoint" />
          </mxGeometry>
        </mxCell>
        <mxCell id="mLjr8I31Hqfwe-pCWp4u-24" value="*" style="edgeLabel;resizable=0;html=1;align=left;verticalAlign=bottom;" connectable="0" vertex="1" parent="mLjr8I31Hqfwe-pCWp4u-23">
          <mxGeometry x="-1" relative="1" as="geometry">
            <mxPoint y="22" as="offset" />
          </mxGeometry>
        </mxCell>
        <mxCell id="mLjr8I31Hqfwe-pCWp4u-25" value="4" style="edgeLabel;resizable=0;html=1;align=right;verticalAlign=bottom;" connectable="0" vertex="1" parent="mLjr8I31Hqfwe-pCWp4u-23">
          <mxGeometry x="1" relative="1" as="geometry">
            <mxPoint x="11.880000000000003" as="offset" />
          </mxGeometry>
        </mxCell>
        <mxCell id="mLjr8I31Hqfwe-pCWp4u-27" value="Move" style="swimlane;fontStyle=1;align=center;verticalAlign=top;childLayout=stackLayout;horizontal=1;startSize=26;horizontalStack=0;resizeParent=1;resizeParentMax=0;resizeLast=0;collapsible=1;marginBottom=0;" vertex="1" parent="dNxyNK7c78bLwvsdeMH5-11">
          <mxGeometry x="364" y="310" width="180" height="112" as="geometry" />
        </mxCell>
        <mxCell id="mLjr8I31Hqfwe-pCWp4u-28" value="- name: string" style="text;strokeColor=none;fillColor=none;align=left;verticalAlign=top;spacingLeft=4;spacingRight=4;overflow=hidden;rotatable=0;points=[[0,0.5],[1,0.5]];portConstraint=eastwest;" vertex="1" parent="mLjr8I31Hqfwe-pCWp4u-27">
          <mxGeometry y="26" width="180" height="26" as="geometry" />
        </mxCell>
        <mxCell id="mLjr8I31Hqfwe-pCWp4u-29" value="- power: number" style="text;strokeColor=none;fillColor=none;align=left;verticalAlign=top;spacingLeft=4;spacingRight=4;overflow=hidden;rotatable=0;points=[[0,0.5],[1,0.5]];portConstraint=eastwest;" vertex="1" parent="mLjr8I31Hqfwe-pCWp4u-27">
          <mxGeometry y="52" width="180" height="26" as="geometry" />
        </mxCell>
        <mxCell id="mLjr8I31Hqfwe-pCWp4u-31" value="" style="line;strokeWidth=1;fillColor=none;align=left;verticalAlign=middle;spacingTop=-1;spacingLeft=3;spacingRight=3;rotatable=0;labelPosition=right;points=[];portConstraint=eastwest;" vertex="1" parent="mLjr8I31Hqfwe-pCWp4u-27">
          <mxGeometry y="78" width="180" height="8" as="geometry" />
        </mxCell>
        <mxCell id="mLjr8I31Hqfwe-pCWp4u-116" value="+ does(): boolean" style="text;strokeColor=none;fillColor=none;align=left;verticalAlign=top;spacingLeft=4;spacingRight=4;overflow=hidden;rotatable=0;points=[[0,0.5],[1,0.5]];portConstraint=eastwest;" vertex="1" parent="mLjr8I31Hqfwe-pCWp4u-27">
          <mxGeometry y="86" width="180" height="26" as="geometry" />
        </mxCell>
        <mxCell id="mLjr8I31Hqfwe-pCWp4u-44" value="Heal" style="swimlane;fontStyle=1;align=center;verticalAlign=top;childLayout=stackLayout;horizontal=1;startSize=26;horizontalStack=0;resizeParent=1;resizeParentMax=0;resizeLast=0;collapsible=1;marginBottom=0;" vertex="1" parent="dNxyNK7c78bLwvsdeMH5-11">
          <mxGeometry x="364" y="530" width="180" height="60" as="geometry" />
        </mxCell>
        <mxCell id="mLjr8I31Hqfwe-pCWp4u-47" value="" style="line;strokeWidth=1;fillColor=none;align=left;verticalAlign=middle;spacingTop=-1;spacingLeft=3;spacingRight=3;rotatable=0;labelPosition=right;points=[];portConstraint=eastwest;" vertex="1" parent="mLjr8I31Hqfwe-pCWp4u-44">
          <mxGeometry y="26" width="180" height="8" as="geometry" />
        </mxCell>
        <mxCell id="mLjr8I31Hqfwe-pCWp4u-117" value="+ cure(): boolean" style="text;strokeColor=none;fillColor=none;align=left;verticalAlign=top;spacingLeft=4;spacingRight=4;overflow=hidden;rotatable=0;points=[[0,0.5],[1,0.5]];portConstraint=eastwest;" vertex="1" parent="mLjr8I31Hqfwe-pCWp4u-44">
          <mxGeometry y="34" width="180" height="26" as="geometry" />
        </mxCell>
        <mxCell id="mLjr8I31Hqfwe-pCWp4u-48" value="Trap" style="swimlane;fontStyle=1;align=center;verticalAlign=top;childLayout=stackLayout;horizontal=1;startSize=26;horizontalStack=0;resizeParent=1;resizeParentMax=0;resizeLast=0;collapsible=1;marginBottom=0;" vertex="1" parent="dNxyNK7c78bLwvsdeMH5-11">
          <mxGeometry x="554" y="530" width="180" height="60" as="geometry" />
        </mxCell>
        <mxCell id="mLjr8I31Hqfwe-pCWp4u-50" value="" style="line;strokeWidth=1;fillColor=none;align=left;verticalAlign=middle;spacingTop=-1;spacingLeft=3;spacingRight=3;rotatable=0;labelPosition=right;points=[];portConstraint=eastwest;" vertex="1" parent="mLjr8I31Hqfwe-pCWp4u-48">
          <mxGeometry y="26" width="180" height="8" as="geometry" />
        </mxCell>
        <mxCell id="mLjr8I31Hqfwe-pCWp4u-51" value="+ action(): boolean" style="text;strokeColor=none;fillColor=none;align=left;verticalAlign=top;spacingLeft=4;spacingRight=4;overflow=hidden;rotatable=0;points=[[0,0.5],[1,0.5]];portConstraint=eastwest;" vertex="1" parent="mLjr8I31Hqfwe-pCWp4u-48">
          <mxGeometry y="34" width="180" height="26" as="geometry" />
        </mxCell>
        <mxCell id="mLjr8I31Hqfwe-pCWp4u-52" value="Attack" style="swimlane;fontStyle=1;align=center;verticalAlign=top;childLayout=stackLayout;horizontal=1;startSize=26;horizontalStack=0;resizeParent=1;resizeParentMax=0;resizeLast=0;collapsible=1;marginBottom=0;" vertex="1" parent="dNxyNK7c78bLwvsdeMH5-11">
          <mxGeometry x="167" y="530" width="180" height="82" as="geometry" />
        </mxCell>
        <mxCell id="mLjr8I31Hqfwe-pCWp4u-134" value="- type: string" style="text;strokeColor=none;fillColor=none;align=left;verticalAlign=top;spacingLeft=4;spacingRight=4;overflow=hidden;rotatable=0;points=[[0,0.5],[1,0.5]];portConstraint=eastwest;" vertex="1" parent="mLjr8I31Hqfwe-pCWp4u-52">
          <mxGeometry y="26" width="180" height="22" as="geometry" />
        </mxCell>
        <mxCell id="mLjr8I31Hqfwe-pCWp4u-55" value="" style="line;strokeWidth=1;fillColor=none;align=left;verticalAlign=middle;spacingTop=-1;spacingLeft=3;spacingRight=3;rotatable=0;labelPosition=right;points=[];portConstraint=eastwest;" vertex="1" parent="mLjr8I31Hqfwe-pCWp4u-52">
          <mxGeometry y="48" width="180" height="8" as="geometry" />
        </mxCell>
        <mxCell id="mLjr8I31Hqfwe-pCWp4u-33" value="- STAB(): boolean" style="text;strokeColor=none;fillColor=none;align=left;verticalAlign=top;spacingLeft=4;spacingRight=4;overflow=hidden;rotatable=0;points=[[0,0.5],[1,0.5]];portConstraint=eastwest;" vertex="1" parent="mLjr8I31Hqfwe-pCWp4u-52">
          <mxGeometry y="56" width="180" height="26" as="geometry" />
        </mxCell>
        <mxCell id="mLjr8I31Hqfwe-pCWp4u-59" value="" style="endArrow=block;endFill=1;html=1;edgeStyle=orthogonalEdgeStyle;align=left;verticalAlign=top;exitX=0.5;exitY=0;exitDx=0;exitDy=0;entryX=0.5;entryY=1;entryDx=0;entryDy=0;" edge="1" parent="dNxyNK7c78bLwvsdeMH5-11" source="mLjr8I31Hqfwe-pCWp4u-52" target="mLjr8I31Hqfwe-pCWp4u-27">
          <mxGeometry x="-1" relative="1" as="geometry">
            <mxPoint x="187" y="590" as="sourcePoint" />
            <mxPoint x="454" y="470" as="targetPoint" />
            <Array as="points">
              <mxPoint x="257" y="500" />
              <mxPoint x="454" y="500" />
            </Array>
          </mxGeometry>
        </mxCell>
        <mxCell id="mLjr8I31Hqfwe-pCWp4u-61" value="" style="endArrow=block;endFill=1;html=1;edgeStyle=orthogonalEdgeStyle;align=left;verticalAlign=top;exitX=0.5;exitY=0;exitDx=0;exitDy=0;entryX=0.5;entryY=1;entryDx=0;entryDy=0;" edge="1" parent="dNxyNK7c78bLwvsdeMH5-11" source="mLjr8I31Hqfwe-pCWp4u-44" target="mLjr8I31Hqfwe-pCWp4u-27">
          <mxGeometry x="-1" relative="1" as="geometry">
            <mxPoint x="387" y="530" as="sourcePoint" />
            <mxPoint x="454" y="470" as="targetPoint" />
            <Array as="points" />
          </mxGeometry>
        </mxCell>
        <mxCell id="mLjr8I31Hqfwe-pCWp4u-63" value="" style="endArrow=block;endFill=1;html=1;edgeStyle=orthogonalEdgeStyle;align=left;verticalAlign=top;exitX=0.5;exitY=0;exitDx=0;exitDy=0;entryX=0.5;entryY=1;entryDx=0;entryDy=0;" edge="1" parent="dNxyNK7c78bLwvsdeMH5-11" source="mLjr8I31Hqfwe-pCWp4u-48" target="mLjr8I31Hqfwe-pCWp4u-27">
          <mxGeometry x="-1" relative="1" as="geometry">
            <mxPoint x="257" y="530" as="sourcePoint" />
            <mxPoint x="454" y="470" as="targetPoint" />
            <Array as="points">
              <mxPoint x="644" y="500" />
              <mxPoint x="454" y="500" />
            </Array>
          </mxGeometry>
        </mxCell>
      </root>
    </mxGraphModel>
  </diagram>
</mxfile>
